<svg width="18" height="15" viewBox="0 0 18 15" fill="none" xmlns="http://www.w3.org/2000/svg">
<path d="M8.80867 2.76417L8.41554 2.26383C8.11307 1.87888 7.77237 1.55213 7.39954 1.28678L7.39951 1.28676C6.66537 0.764196 5.83562 0.5 4.92142 0.5C3.6852 0.5 2.56332 0.954446 1.75074 1.76555L8.80867 2.76417ZM8.80867 2.76417L9.20183 2.26385M8.80867 2.76417L9.20183 2.26385M9.20183 2.26385C9.50445 1.87875 9.84505 1.5521 10.2178 1.28674C10.9521 0.764177 11.7818 0.5 12.696 0.5C13.9322 0.5 15.0539 0.954446 15.8665 1.76558C16.6691 2.56679 17.1174 3.66652 17.1174 4.87276C17.1174 6.08731 16.6334 7.22846 15.4986 8.48857L15.4986 8.4886C14.4676 9.6337 12.9745 10.8067 11.1879 12.2079L11.1879 12.208L11.1723 12.2202C10.57 12.6927 9.88596 13.2293 9.17598 13.8007L9.17572 13.8009C9.07993 13.8782 8.94979 13.9255 8.80869 13.9255C8.66759 13.9255 8.53757 13.8782 8.44144 13.8007L8.4411 13.8005C7.7258 13.2249 7.03721 12.6847 6.43189 12.2099L6.4299 12.2083L6.42987 12.2083M9.20183 2.26385L6.42987 12.2083M6.42987 12.2083C4.64301 10.8069 3.14997 9.63371 2.1189 8.48871C0.984099 7.22844 0.5 6.08727 0.5 4.87288C0.5 3.66653 0.948283 2.56681 1.7507 1.76559L6.42987 12.2083Z" fill="#FF4B77" stroke="#FF4B77"/>
</svg>
